<svg width="32" height="32" viewBox="0 0 32 32" fill="none" xmlns="http://www.w3.org/2000/svg">
<g clip-path="url(#clip0_79_357)">
<path opacity="0.973" fill-rule="evenodd" clip-rule="evenodd" d="M15.5938 -0.03125C15.8438 -0.03125 16.0938 -0.03125 16.3438 -0.03125C16.7043 0.255862 17.0585 0.557946 17.4062 0.875C22.1269 5.44985 26.8664 10.0019 31.625 14.5312C31.7581 14.7354 31.8727 14.9437 31.9688 15.1562C31.9688 15.4688 31.9688 15.7812 31.9688 16.0938C31.7761 16.6511 31.4011 17.0365 30.8438 17.25C29.8891 17.3397 28.9307 17.3709 27.9688 17.3438C27.9792 21.6146 27.9688 25.8854 27.9375 30.1562C27.6866 31.1051 27.0928 31.7093 26.1562 31.9688C24.0729 31.9688 21.9896 31.9688 19.9062 31.9688C19.6228 31.8218 19.4249 31.5926 19.3125 31.2812C19.2917 28.2604 19.2708 25.2396 19.25 22.2188C19.2092 22.0798 19.1155 22.0069 18.9688 22C16.9688 21.9583 14.9688 21.9583 12.9688 22C12.822 22.0069 12.7283 22.0798 12.6875 22.2188C12.6667 25.2396 12.6458 28.2604 12.625 31.2812C12.5233 31.6011 12.3254 31.8303 12.0312 31.9688C9.94794 31.9688 7.86456 31.9688 5.78125 31.9688C4.84472 31.7093 4.25097 31.1051 4 30.1562C3.96875 25.8854 3.95833 21.6146 3.96875 17.3438C3.00679 17.3709 2.04846 17.3397 1.09375 17.25C0.536434 17.0365 0.161434 16.6511 -0.03125 16.0938C-0.03125 15.7812 -0.03125 15.4688 -0.03125 15.1562C0.168268 14.6739 0.480768 14.2677 0.90625 13.9375C5.46687 9.60612 10.0086 5.25194 14.5312 0.875C14.879 0.557946 15.2332 0.255862 15.5938 -0.03125ZM15.9062 2.46875C15.9951 2.48179 16.0784 2.51304 16.1562 2.5625C20.5521 6.79169 24.9479 11.0208 29.3438 15.25C28.4479 15.2708 27.5521 15.2917 26.6562 15.3125C26.3376 15.4021 26.1189 15.6 26 15.9062C25.9994 20.5348 25.9578 25.1598 25.875 29.7812C25.8186 29.8563 25.7457 29.9084 25.6562 29.9375C24.2189 29.9688 22.7814 29.9792 21.3438 29.9688C21.3542 27.302 21.3438 24.6353 21.3125 21.9688C21.1338 20.9359 20.5401 20.2797 19.5312 20C17.1562 19.9583 14.7812 19.9583 12.4062 20C11.3974 20.2797 10.8037 20.9359 10.625 21.9688C10.5938 24.6353 10.5833 27.302 10.5938 29.9688C9.15612 29.9792 7.71862 29.9688 6.28125 29.9375C6.19183 29.9084 6.11891 29.8563 6.0625 29.7812C6.06134 25.1544 6.01968 20.5294 5.9375 15.9062C5.81864 15.6 5.59989 15.4021 5.28125 15.3125C4.38542 15.2917 3.48958 15.2708 2.59375 15.25C7.02469 10.9751 11.4622 6.71469 15.9062 2.46875Z" fill="black"/>
</g>
<defs>
<clipPath id="clip0_79_357">
<rect width="32" height="32" fill="white"/>
</clipPath>
</defs>
</svg>
