<svg width="32" height="32" viewBox="0 0 32 32" fill="none" xmlns="http://www.w3.org/2000/svg">
<g clip-path="url(#clip0_79_370)">
<path opacity="0.968" fill-rule="evenodd" clip-rule="evenodd" d="M31.9688 5.28125C31.9688 5.57292 31.9688 5.86458 31.9688 6.15625C31.7603 6.62481 31.4061 6.92694 30.9062 7.0625C20.9479 7.10419 10.9896 7.10419 1.03125 7.0625C0.53136 6.92694 0.177193 6.62481 -0.03125 6.15625C-0.03125 5.86458 -0.03125 5.57292 -0.03125 5.28125C0.177193 4.81268 0.53136 4.51059 1.03125 4.375C10.9896 4.33333 20.9479 4.33333 30.9062 4.375C31.4061 4.51059 31.7603 4.81268 31.9688 5.28125Z" fill="black"/>
<path opacity="0.989" fill-rule="evenodd" clip-rule="evenodd" d="M31.9688 15.5313C31.9688 15.8021 31.9688 16.073 31.9688 16.3438C31.8135 16.801 31.501 17.1031 31.0312 17.25C20.9896 17.2917 10.9479 17.2917 0.90625 17.25C0.436506 17.1031 0.124006 16.801 -0.03125 16.3438C-0.03125 16.073 -0.03125 15.8021 -0.03125 15.5313C0.124006 15.074 0.436506 14.772 0.90625 14.625C10.9479 14.5833 20.9896 14.5833 31.0312 14.625C31.501 14.772 31.8135 15.074 31.9688 15.5313Z" fill="black"/>
<path opacity="0.968" fill-rule="evenodd" clip-rule="evenodd" d="M31.9688 25.7188C31.9688 26.0105 31.9688 26.3021 31.9688 26.5938C31.7598 27.0629 31.4056 27.365 30.9062 27.5C20.9479 27.5417 10.9896 27.5417 1.03125 27.5C0.531862 27.365 0.177696 27.0629 -0.03125 26.5938C-0.03125 26.3021 -0.03125 26.0105 -0.03125 25.7188C0.184274 25.2223 0.559274 24.9202 1.09375 24.8125C11.0104 24.7708 20.9271 24.7708 30.8438 24.8125C31.3783 24.9202 31.7533 25.2223 31.9688 25.7188Z" fill="black"/>
</g>
<defs>
<clipPath id="clip0_79_370">
<rect width="32" height="32" fill="white"/>
</clipPath>
</defs>
</svg>
