<svg width="32" height="32" viewBox="0 0 32 32" fill="none" xmlns="http://www.w3.org/2000/svg">
<path opacity="0.964" fill-rule="evenodd" clip-rule="evenodd" d="M14.7185 0C15.5518 0 16.3852 0 17.2185 0C22.3773 0.77325 25.8044 3.62741 27.4998 8.5625C28.2779 11.4582 28.0904 14.2915 26.9373 17.0625C25.7924 19.7493 24.3757 22.2701 22.6873 24.625C21.0567 26.8421 19.3067 28.9671 17.4373 31C17.0979 31.3711 16.7333 31.7044 16.3435 32C16.0935 32 15.8435 32 15.5935 32C12.079 28.5744 9.08933 24.7411 6.62477 20.5C5.71279 18.8678 4.98362 17.1594 4.43727 15.375C3.20097 10.3766 4.48222 6.15786 8.28102 2.71875C10.1672 1.19766 12.3131 0.291407 14.7185 0ZM14.906 2.0625C19.1418 1.84159 22.3814 3.50826 24.6248 7.0625C26.1465 9.96206 26.3131 12.9412 25.1248 16C24.477 17.7121 23.6645 19.3371 22.6873 20.875C20.7184 23.9358 18.4788 26.7899 15.9685 29.4375C12.7991 26.1746 10.122 22.5496 7.93727 18.5625C7.00015 16.8136 6.37515 14.9594 6.06227 13C5.82975 8.7875 7.48602 5.56876 11.031 3.34375C12.2537 2.6827 13.5453 2.25562 14.906 2.0625Z" fill="black"/>
<path opacity="0.963" fill-rule="evenodd" clip-rule="evenodd" d="M15.1564 5.96862C18.0658 5.76751 20.1804 6.955 21.5002 9.53112C22.3691 11.803 22.0774 13.9072 20.6252 15.8436C18.6324 17.9537 16.2677 18.5058 13.5314 17.4999C10.7802 16.0706 9.62394 13.8101 10.0627 10.7186C10.7706 8.06244 12.4686 6.47912 15.1564 5.96862ZM15.2814 8.03112C12.9603 8.69175 11.8874 10.2334 12.0627 12.6561C12.7077 14.9845 14.2389 16.0574 16.6564 15.8749C18.9848 15.2299 20.0577 13.6986 19.8752 11.2811C19.2287 8.962 17.6974 7.87862 15.2814 8.03112Z" fill="black"/>
</svg>
