<svg width="32" height="32" viewBox="0 0 32 32" fill="none" xmlns="http://www.w3.org/2000/svg">
<g clip-path="url(#clip0_79_360)">
<path opacity="0.964" fill-rule="evenodd" clip-rule="evenodd" d="M23.0312 -0.03125C23.6354 -0.03125 24.2395 -0.03125 24.8437 -0.03125C27.6177 0.460936 29.4614 2.04427 30.375 4.71875C31.1257 8.05906 30.0736 10.6528 27.2187 12.5C24.5194 13.8065 21.9777 13.5565 19.5937 11.75C17.282 9.53381 16.6883 6.91925 17.8125 3.90625C18.8869 1.70802 20.6265 0.395521 23.0312 -0.03125ZM23.9062 1.96875C26.3495 2.14321 27.8808 3.41404 28.5 5.78125C28.7616 8.45644 27.6262 10.2377 25.0937 11.125C22.6411 11.5497 20.839 10.6643 19.6875 8.46875C18.914 6.28081 19.4036 4.43709 21.1562 2.9375C21.9854 2.34528 22.902 2.02236 23.9062 1.96875Z" fill="black"/>
<path opacity="0.975" fill-rule="evenodd" clip-rule="evenodd" d="M15.4061 31.9685C14.8644 31.9685 14.3228 31.9685 13.7811 31.9685C11.6235 31.4673 10.2485 30.1445 9.65609 27.9998C7.46859 27.979 5.28109 27.9581 3.09359 27.9373C1.71317 27.4923 1.11942 26.5444 1.31234 25.0935C1.38163 24.8298 1.4858 24.5798 1.62484 24.3435C1.99984 23.8852 2.41651 23.4685 2.87484 23.0935C4.41167 21.3727 5.20333 19.3518 5.24984 17.031C5.27067 15.4268 5.29151 13.8227 5.31234 12.2185C5.8348 8.70247 7.6994 6.19205 10.9061 4.68728C12.3476 4.07956 13.8476 3.85039 15.4061 3.99978C16.0367 4.27147 16.2554 4.74022 16.0623 5.40603C15.7459 5.95287 15.2772 6.14037 14.6561 5.96853C11.4105 6.14373 9.12928 7.70622 7.81234 10.656C7.48522 11.5001 7.31853 12.3751 7.31234 13.281C7.29153 14.9268 7.27065 16.5727 7.24984 18.2185C6.87497 21.1355 5.5833 23.5522 3.37484 25.4685C3.2954 25.6977 3.36832 25.8539 3.59359 25.9373C10.9929 25.9994 18.3888 25.9786 25.7811 25.8748C25.9169 25.7582 25.9378 25.6228 25.8436 25.4685C22.854 22.7625 21.552 19.3875 21.9373 15.3435C22.1405 14.7259 22.5677 14.4655 23.2186 14.5623C23.5832 14.6768 23.8228 14.9165 23.9373 15.281C23.6999 17.8313 24.2832 20.1646 25.6873 22.281C26.2059 22.9455 26.7892 23.5497 27.4373 24.0935C28.1178 25.0785 28.1386 26.0785 27.4998 27.0935C27.1472 27.5252 26.6992 27.8064 26.1561 27.9373C23.9478 27.9685 21.7395 27.979 19.5311 27.9685C18.9939 30.1725 17.6189 31.5058 15.4061 31.9685ZM11.8436 27.9685C13.6979 27.9581 15.552 27.9685 17.4061 27.9998C16.6593 29.5398 15.451 30.144 13.7811 29.8123C12.8383 29.5048 12.1925 28.8902 11.8436 27.9685Z" fill="black"/>
</g>
<defs>
<clipPath id="clip0_79_360">
<rect width="32" height="32" fill="white"/>
</clipPath>
</defs>
</svg>
